<svg version="1.1" id="Layer_1" xmlns="http://www.w3.org/2000/svg" xmlns:xlink="http://www.w3.org/1999/xlink" x="0px" y="0px"
	 width="100%" viewBox="0 0 1024 736" enable-background="new 0 0 1024 736" xml:space="preserve">
<path fill="#000000" opacity="1.000000" stroke="none" 
	d="
M454.946594,510.177490 
	C404.863892,487.244049 375.147003,448.825287 367.107178,394.816071 
	C355.516479,316.952698 408.152069,244.449356 485.930725,229.670547 
	C567.656982,214.141647 646.584290,270.022980 658.705627,352.512207 
	C670.765747,434.585419 614.774841,508.922729 534.012634,520.479187 
	C506.735474,524.382324 480.659393,520.517029 454.946594,510.177490 
M547.516541,288.647339 
	C562.764160,287.555573 576.690857,291.104828 588.569275,300.979797 
	C617.825500,325.301453 614.039612,371.870636 581.324341,391.289978 
	C575.250977,394.895020 575.322876,394.843628 579.552246,400.758484 
	C590.599792,416.208527 601.517761,431.751587 612.624878,447.158417 
	C615.570496,451.244385 618.004456,455.813599 622.020264,459.143250 
	C664.598022,406.603210 663.424316,317.275543 598.530151,265.890472 
	C535.137085,215.694016 442.421143,230.675522 397.617767,298.268036 
	C352.564514,366.237488 375.391907,457.372925 447.706421,496.579163 
	C513.676086,532.345459 588.649597,505.171692 619.618042,461.267517 
	C609.199524,461.267517 599.055176,461.024323 588.931458,461.374512 
	C584.175293,461.539032 581.360046,459.802277 578.708496,455.978912 
	C566.081482,437.771759 553.140259,419.782837 540.414429,401.643555 
	C538.561768,399.002838 536.412720,397.629120 533.282410,398.410187 
	C529.954285,399.240631 531.062134,402.137848 531.055847,404.244293 
	C531.006042,421.074646 530.929688,437.908081 531.218628,454.734406 
	C531.303101,459.658142 529.983887,461.404510 524.790100,461.333252 
	C504.129913,461.049774 483.463654,461.209656 462.799622,461.206818 
	C445.801788,461.204468 428.803223,461.118164 411.806641,461.262482 
	C407.442413,461.299500 405.265900,460.090332 405.698090,455.290741 
	C406.055450,451.322601 406.045746,447.278381 405.731995,443.304718 
	C405.409943,439.226746 406.696655,436.015656 408.974945,432.674805 
	C433.193665,397.160583 457.273956,361.551971 481.366516,325.951843 
	C482.161011,324.777863 483.445404,323.714874 482.958435,321.923370 
	C481.136444,320.738831 479.088287,321.247772 477.154663,321.243439 
	C455.990784,321.195831 434.825897,321.095917 413.663574,321.279480 
	C409.063629,321.319397 407.428528,319.808350 407.644470,315.227356 
	C407.942261,308.909058 407.702484,302.565887 407.711639,296.233368 
	C407.723480,288.041229 407.731720,288.006256 416.072784,288.081390 
	C459.556610,288.473175 503.046661,287.410156 547.516541,288.647339 
M557.890442,410.641571 
	C566.704529,423.172852 575.515381,435.706360 584.336548,448.232666 
	C585.475281,449.849731 586.421326,451.810486 588.773193,451.866791 
	C593.689453,451.984497 598.625793,452.366455 604.198547,451.377991 
	C589.674744,430.740082 575.482361,410.573120 561.455933,390.642029 
	C563.174866,388.359558 564.904358,388.200256 566.458618,387.737457 
	C590.658508,380.531616 604.034180,356.764069 597.785400,332.042267 
	C591.601990,307.578979 565.296326,291.600250 540.755554,297.429626 
	C539.986755,297.612244 539.016724,297.941803 538.617676,298.527802 
	C535.858032,302.580383 532.794373,306.476257 530.633057,312.038239 
	C538.603882,312.038239 545.876709,311.834961 553.134583,312.077820 
	C572.080261,312.711761 584.431763,326.295532 584.382385,345.646606 
	C584.348999,358.750122 572.871704,375.218109 552.542664,374.483887 
	C539.235474,374.003265 525.895996,374.483948 512.574951,374.279175 
	C508.503143,374.216583 506.991730,375.521942 507.045837,379.683472 
	C507.229919,393.837860 507.115143,407.996063 507.127075,422.152802 
	C507.132599,428.700989 507.145782,428.701355 513.820923,428.713837 
	C514.653687,428.715424 515.496155,428.627319 516.317505,428.723114 
	C520.445801,429.204651 521.894226,427.425751 521.800659,423.289825 
	C521.582275,413.635010 521.879578,403.968719 521.677063,394.313202 
	C521.594421,390.374268 523.115417,388.869293 526.915100,389.006592 
	C530.407410,389.132751 533.919006,389.159607 537.403687,388.939301 
	C540.928711,388.716461 543.398865,389.976654 545.382629,392.908997 
	C549.300476,398.700165 553.433716,404.345612 557.890442,410.641571 
M497.779755,373.579041 
	C497.811707,365.681763 497.811707,365.684113 505.642090,365.680267 
	C521.630127,365.672424 537.618713,365.734283 553.606079,365.629028 
	C566.073975,365.546967 575.675781,355.942566 575.632385,343.834930 
	C575.587646,331.354034 565.971497,321.415222 553.651367,321.271698 
	C545.492126,321.176636 537.325500,321.451385 529.172302,321.213715 
	C525.394409,321.103577 523.104980,322.425995 521.008179,325.562012 
	C499.170074,358.223389 477.183533,390.785522 455.279053,423.402618 
	C454.323975,424.824768 452.702759,426.096924 453.411194,428.686127 
	C466.482422,428.686127 479.609619,428.572754 492.732697,428.754913 
	C496.691956,428.809845 497.909424,427.394165 497.869934,423.520203 
	C497.703583,407.200806 497.791351,390.878784 497.779755,373.579041 
M513.355408,437.385345 
	C487.707062,437.385345 462.058685,437.385345 436.410339,437.385345 
	C436.226379,436.849243 436.042450,436.313141 435.858490,435.777008 
	C466.674225,389.944519 497.489929,344.112030 528.976013,297.282501 
	C523.140991,297.282501 518.986511,297.403381 514.843201,297.240997 
	C511.972290,297.128510 510.326813,298.411224 508.815704,300.740417 
	C483.168884,340.271942 456.371094,379.032166 430.044250,418.108276 
	C425.672363,424.597382 421.271881,431.067230 416.909119,437.562439 
	C414.144348,441.678589 414.452057,446.501160 415.971741,450.502808 
	C417.105377,453.487946 421.389130,451.880005 424.246307,451.906891 
	C437.568268,452.032227 450.892212,451.944885 464.215424,451.944458 
	C481.535583,451.943939 498.855774,451.970367 516.175842,451.933380 
	C517.939087,451.929626 520.467285,452.573547 521.169739,450.640564 
	C522.489502,447.008972 522.375916,442.922394 521.345093,439.328033 
	C520.385803,435.983063 516.750305,437.863831 513.355408,437.385345 
M496.542542,303.094910 
	C497.350861,301.380829 499.309143,300.174408 498.960999,297.952698 
	C498.559967,297.732910 498.278015,297.443298 497.995483,297.442688 
	C472.212616,297.387604 446.429718,297.345917 420.646820,297.355652 
	C419.717407,297.355988 418.231384,297.611572 417.949432,298.200470 
	C416.154480,301.949829 416.529663,306.043793 417.322998,309.871368 
	C417.951996,312.905945 421.124237,311.933838 423.295258,311.941528 
	C442.426514,312.009308 461.569275,311.605011 480.684021,312.170685 
	C488.092590,312.389923 493.182068,310.537201 496.542542,303.094910 
z"/>
</svg>